<svg xmlns="http://www.w3.org/2000/svg" width="1200" height="880" viewBox="0 0 1200 880" role="img" aria-label="Stylised civic map for NearMe India">
  <defs>
    <pattern id="grid" width="42" height="42" patternUnits="userSpaceOnUse">
      <path d="M 42 0 L 0 0 0 42" fill="none" stroke="#1f2b35" stroke-width="1" opacity=".2"/>
    </pattern>
    <filter id="shadow" x="-20%" y="-20%" width="140%" height="140%">
      <feDropShadow dx="0" dy="18" stdDeviation="18" flood-color="#101820" flood-opacity=".22"/>
    </filter>
  </defs>
  <rect width="1200" height="880" fill="#f6efe0"/>
  <rect width="1200" height="880" fill="url(#grid)"/>
  <path d="M-40 638C145 570 223 705 377 640c124-52 111-190 262-214 146-24 211 92 341 46 92-32 121-107 263-111" fill="none" stroke="#107c8c" stroke-width="34" stroke-linecap="round" opacity=".85"/>
  <path d="M-10 252c129 52 204 31 291-21 89-53 162-74 267-7 111 70 157 99 285 46 123-51 198-142 369-91" fill="none" stroke="#ef3e36" stroke-width="26" stroke-linecap="round"/>
  <path d="M118 782c172-102 279-79 407-140 147-70 120-181 264-225 106-33 223-3 350-92" fill="none" stroke="#ffbf3f" stroke-width="18" stroke-linecap="round"/>
  <g filter="url(#shadow)">
    <rect x="88" y="96" width="330" height="186" rx="22" fill="#101820"/>
    <text x="124" y="154" font-family="Georgia, serif" font-size="38" fill="#f6efe0" font-weight="700">112</text>
    <text x="124" y="198" font-family="Verdana, sans-serif" font-size="23" fill="#ffbf3f" font-weight="700">Emergency grid</text>
    <text x="124" y="236" font-family="Verdana, sans-serif" font-size="18" fill="#f6efe0" opacity=".75">Police · Fire · Health</text>
  </g>
  <g filter="url(#shadow)">
    <rect x="706" y="114" width="314" height="150" rx="22" fill="#f6efe0" stroke="#101820" stroke-width="6"/>
    <text x="740" y="172" font-family="Verdana, sans-serif" font-size="25" fill="#101820" font-weight="700">Aadhaar</text>
    <text x="740" y="213" font-family="Verdana, sans-serif" font-size="18" fill="#101820" opacity=".72">1947 · official locator</text>
  </g>
  <g filter="url(#shadow)">
    <rect x="182" y="492" width="308" height="152" rx="22" fill="#1f7a4d"/>
    <text x="214" y="552" font-family="Verdana, sans-serif" font-size="25" fill="#f6efe0" font-weight="700">Hospitals</text>
    <text x="214" y="594" font-family="Verdana, sans-serif" font-size="18" fill="#f6efe0" opacity=".78">Government care nearby</text>
  </g>
  <g filter="url(#shadow)">
    <rect x="754" y="542" width="318" height="170" rx="22" fill="#ef3e36"/>
    <text x="792" y="608" font-family="Georgia, serif" font-size="34" fill="#fff8ea" font-weight="700">Blood banks</text>
    <text x="792" y="650" font-family="Verdana, sans-serif" font-size="18" fill="#fff8ea" opacity=".84">Call first · verify stock</text>
  </g>
  <g fill="#101820">
    <circle cx="584" cy="318" r="15"/>
    <circle cx="606" cy="742" r="15"/>
    <circle cx="1016" cy="404" r="15"/>
    <circle cx="502" cy="116" r="15"/>
    <circle cx="110" cy="390" r="15"/>
  </g>
  <g fill="none" stroke="#101820" stroke-width="5" opacity=".7">
    <path d="M584 318l122-136"/>
    <path d="M606 742l148-115"/>
    <path d="M502 116l204 59"/>
  </g>
</svg>
